<?xml version="1.0" encoding="iso-8859-1"?>
<!-- Generator: Adobe Illustrator 30.0.0, SVG Export Plug-In . SVG Version: 9.03 Build 0)  -->
<svg version="1.1" xmlns="http://www.w3.org/2000/svg" xmlns:xlink="http://www.w3.org/1999/xlink" x="0px" y="0px"
	 viewBox="0 0 281.223 168.564" enable-background="new 0 0 281.223 168.564" xml:space="preserve">
<g id="BACKGROUND" display="none">
	<g display="inline">
		<rect x="-110.278" y="-56.066" fill="#FFFFFF" width="500" height="500"/>
		<radialGradient id="SVGID_1_" cx="139.7221" cy="105.9338" r="261.008" gradientUnits="userSpaceOnUse">
			<stop  offset="0" style="stop-color:#FFFFFF"/>
			<stop  offset="0.4603" style="stop-color:#FBFCFC"/>
			<stop  offset="0.9051" style="stop-color:#F0F2F4"/>
			<stop  offset="1" style="stop-color:#ECEFF1"/>
		</radialGradient>
		<rect x="-110.278" y="-56.066" fill="url(#SVGID_1_)" width="500" height="324"/>
	</g>
</g>
<g id="OBJECTS">
	<g>
		<g>
			
				<linearGradient id="SVGID_00000145767391256936621730000008493796121270464132_" gradientUnits="userSpaceOnUse" x1="25.5609" y1="80.2824" x2="146.0856" y2="80.2824" gradientTransform="matrix(-1 0 0 1 279.4449 0)">
				<stop  offset="0" style="stop-color:#26C6DA"/>
				<stop  offset="1" style="stop-color:#AFE157"/>
			</linearGradient>
			<polygon fill="url(#SVGID_00000145767391256936621730000008493796121270464132_)" points="206.091,107.202 236.832,43.95 
				253.884,43.95 218.569,116.614 133.359,97.065 			"/>
			
				<linearGradient id="SVGID_00000036934187297253664420000008548549729687168676_" gradientUnits="userSpaceOnUse" x1="41.2108" y1="65.801" x2="161.7354" y2="65.801" gradientTransform="matrix(-1 0 0 1 279.4449 0)">
				<stop  offset="0" style="stop-color:#26C6DA"/>
				<stop  offset="1" style="stop-color:#AFE157"/>
			</linearGradient>
			<polygon fill="url(#SVGID_00000036934187297253664420000008548549729687168676_)" points="190.442,92.72 221.182,29.469 
				238.234,29.469 202.919,102.133 117.709,92.72 			"/>
			
				<linearGradient id="SVGID_00000149370995696618075260000015878733404016281740_" gradientUnits="userSpaceOnUse" x1="56.8606" y1="51.3196" x2="253.884" y2="51.3196" gradientTransform="matrix(-1 0 0 1 279.4449 0)">
				<stop  offset="0" style="stop-color:#26C6DA"/>
				<stop  offset="1" style="stop-color:#AFE157"/>
			</linearGradient>
			<path fill="url(#SVGID_00000149370995696618075260000015878733404016281740_)" d="M29.598,79.578h53.191h20.072
				c2.23,0,4.037-1.807,4.037-4.037c0-2.23-1.807-4.037-4.037-4.037H84.023H50.596c-2.229,0-4.037-1.807-4.037-4.037
				c0-2.229,1.807-4.037,4.037-4.037h34.661h2.476c2.229,0,4.037-1.807,4.037-4.037c0-2.23-1.807-4.037-4.037-4.037H86.49h-7.656
				c-2.229,0-4.037-1.807-4.037-4.037c0-2.23,1.807-4.037,4.037-4.037h8.889h38.143h6.999c2.23,0,4.037-1.807,4.037-4.037
				s-1.807-4.037-4.037-4.037h-2.962H99.094H70.87c-2.229,0-4.037-1.807-4.037-4.037c0-2.229,1.808-4.037,4.037-4.037h29.458h8.644
				c2.229,0,4.037-1.807,4.037-4.037c0-2.229-1.807-4.037-4.037-4.037H91.424H52.527c-2.229,0-4.037-1.807-4.037-4.037v0
				c0-2.229,1.807-4.037,4.037-4.037h40.131h27.108h102.818L187.27,87.652h-71.54H81.556H29.598c-2.229,0-4.037-1.807-4.037-4.037
				S27.368,79.578,29.598,79.578z"/>
		</g>
	</g>
	<g>
		<path fill="#F5F6F7" d="M38.972,152.757c-1.956,0.859-4.403,1.289-7.342,1.289c-8.557,0-12.835-4.21-12.835-12.632
			c0-7.969,4.352-11.954,13.056-11.954c2.656,0,5.03,0.396,7.121,1.187v4.069c-2.091-0.904-4.352-1.356-6.782-1.356
			c-5.821,0-8.732,2.685-8.732,8.054c0,5.822,2.747,8.732,8.24,8.732c0.814,0,1.741-0.135,2.781-0.407v-7.054h4.493V152.757z"/>
		<path fill="#F5F6F7" d="M43.211,153.843V129.63h11.021c4.951,0,7.427,2.165,7.427,6.494c0,2.928-1.928,5.353-5.782,7.274
			l7.681,10.479h-5.663l-7.376-10.563v-2.052c4.295-0.734,6.443-2.402,6.443-5.001c0-1.786-1.006-2.679-3.018-2.679h-6.155v20.262
			H43.211z"/>
		<path fill="#F5F6F7" d="M68.17,153.877h-4.612L73.85,129.63h4.833l10.513,24.247h-4.833l-2.764-6.613h-8.054l1.543-3.9h4.883
			l-3.815-9.105L68.17,153.877z"/>
		<path fill="#F5F6F7" d="M92.162,153.877V129.63h4.493l12.801,17.668V129.63h4.324v24.247h-4.493l-12.801-18.041v18.041H92.162z"/>
		<path fill="#F5F6F7" d="M121.36,153.877h-4.612l10.292-24.247h4.833l10.512,24.247h-4.832l-2.764-6.613h-8.054l1.543-3.9h4.883
			l-3.815-9.105L121.36,153.877z"/>
		<path fill="#F5F6F7" d="M172.311,152.859c-2.092,0.792-4.466,1.187-7.122,1.187c-8.704,0-13.056-4.21-13.056-12.632
			c0-7.969,4.352-11.954,13.056-11.954c2.656,0,5.03,0.396,7.122,1.187v4.069c-2.092-0.904-4.353-1.356-6.782-1.356
			c-5.822,0-8.732,2.685-8.732,8.054c0,5.822,2.91,8.732,8.732,8.732c2.43,0,4.69-0.452,6.782-1.356V152.859z"/>
		<path fill="#F5F6F7" d="M193.149,129.63v3.866h-12.14v6.104h11.563v4.019h-11.614v6.358h12.428v3.9h-16.837V129.63H193.149z"/>
		<path fill="#F5F6F7" d="M197.54,153.843V129.63h11.021c4.951,0,7.427,2.165,7.427,6.494c0,2.928-1.928,5.353-5.782,7.274
			l7.681,10.479h-5.663l-7.375-10.563v-2.052c4.295-0.734,6.442-2.402,6.442-5.001c0-1.786-1.006-2.679-3.018-2.679h-6.155v20.262
			H197.54z"/>
		<path fill="#F5F6F7" d="M235.861,129.63v3.9h-6.951v20.347h-4.493V133.53h-6.952v-3.9H235.861z"/>
		<path fill="#F5F6F7" d="M240.897,153.877h-4.612l10.292-24.247h4.832l10.513,24.247h-4.832l-2.764-6.613h-8.054l1.543-3.9h4.883
			l-3.815-9.105L240.897,153.877z"/>
	</g>
</g>
<g id="DESIGNED_BY_FREEPIK">
	<g>
	</g>
	<g>
	</g>
	<g>
	</g>
	<g>
	</g>
	<g>
	</g>
	<g>
	</g>
</g>
</svg>
